<svg width="45" height="45" viewBox="0 0 45 45" fill="none" xmlns="http://www.w3.org/2000/svg">
<rect width="45" height="45" fill="#E5E5E5"/>
<g id="Landing Page">
<rect width="1440" height="6466" transform="translate(-588 -1308)" fill="white"/>
<g id="Frame 5">
<g id="Group 1884">
<g id="Rectangle 12" filter="url(#filter0_d_0_1)">
<rect x="-16" y="-16" width="77" height="77" rx="10" fill="white"/>
</g>
<g id="plant-line 1" clip-path="url(#clip0_0_1)">
<path id="Vector" d="M11.25 3.75C16.2937 3.75 20.67 6.59438 22.8694 10.7644C25.0763 7.65563 28.7062 5.625 32.8125 5.625H39.375V10.3125C39.375 17.0437 33.9188 22.5 27.1875 22.5H24.375V24.375H33.75V37.5C33.75 39.5719 32.0719 41.25 30 41.25H15C12.9281 41.25 11.25 39.5719 11.25 37.5V24.375H20.625V20.625H16.875C9.62625 20.625 3.75 14.7487 3.75 7.5V3.75H11.25ZM30 28.125H15V37.5H30V28.125ZM35.625 9.375H32.8125C28.1531 9.375 24.375 13.1531 24.375 17.8125V18.75H27.1875C31.8469 18.75 35.625 14.9719 35.625 10.3125V9.375ZM11.25 7.5H7.5C7.5 12.6769 11.6981 16.875 16.875 16.875H20.625C20.625 11.6981 16.4269 7.5 11.25 7.5Z" fill="#F4511E"/>
</g>
</g>
</g>
</g>
<defs>
<filter id="filter0_d_0_1" x="-35" y="-23" width="115" height="115" filterUnits="userSpaceOnUse" color-interpolation-filters="sRGB">
<feFlood flood-opacity="0" result="BackgroundImageFix"/>
<feColorMatrix in="SourceAlpha" type="matrix" values="0 0 0 0 0 0 0 0 0 0 0 0 0 0 0 0 0 0 127 0" result="hardAlpha"/>
<feOffset dy="12"/>
<feGaussianBlur stdDeviation="9.5"/>
<feComposite in2="hardAlpha" operator="out"/>
<feColorMatrix type="matrix" values="0 0 0 0 0 0 0 0 0 0 0 0 0 0 0 0 0 0 0.15 0"/>
<feBlend mode="normal" in2="BackgroundImageFix" result="effect1_dropShadow_0_1"/>
<feBlend mode="normal" in="SourceGraphic" in2="effect1_dropShadow_0_1" result="shape"/>
</filter>
<clipPath id="clip0_0_1">
<rect width="45" height="45" fill="white"/>
</clipPath>
</defs>
</svg>
