<svg width="45" height="45" viewBox="0 0 45 45" fill="none" xmlns="http://www.w3.org/2000/svg">
<rect width="45" height="45" fill="#E5E5E5"/>
<g id="Landing Page">
<rect width="1440" height="6466" transform="translate(-1102 -1048)" fill="white"/>
<g id="Frame 5">
<g id="Group 1884">
<g id="Rectangle 14" filter="url(#filter0_d_0_1)">
<rect x="-16" y="-16" width="77" height="77" rx="10" fill="white"/>
</g>
<g id="stack-line 1" clip-path="url(#clip0_0_1)">
<path id="Vector" d="M37.6556 28.4999L39.9093 29.8518C40.0484 29.935 40.1635 30.0529 40.2434 30.1939C40.3233 30.3348 40.3653 30.4941 40.3653 30.6562C40.3653 30.8182 40.3233 30.9775 40.2434 31.1185C40.1635 31.2595 40.0484 31.3773 39.9093 31.4605L23.4656 41.3268C23.174 41.502 22.8402 41.5946 22.5 41.5946C22.1598 41.5946 21.826 41.502 21.5343 41.3268L5.0906 31.4605C4.95156 31.3773 4.83647 31.2595 4.75656 31.1185C4.67665 30.9775 4.63464 30.8182 4.63464 30.6562C4.63464 30.4941 4.67665 30.3348 4.75656 30.1939C4.83647 30.0529 4.95156 29.935 5.0906 29.8518L7.34435 28.4999L22.5 37.5937L37.6556 28.4999ZM37.6556 19.6874L39.9093 21.0393C40.0484 21.1225 40.1635 21.2404 40.2434 21.3814C40.3233 21.5223 40.3653 21.6816 40.3653 21.8437C40.3653 22.0057 40.3233 22.165 40.2434 22.306C40.1635 22.447 40.0484 22.5648 39.9093 22.648L22.5 33.0937L5.0906 22.648C4.95156 22.5648 4.83647 22.447 4.75656 22.306C4.67665 22.165 4.63464 22.0057 4.63464 21.8437C4.63464 21.6816 4.67665 21.5223 4.75656 21.3814C4.83647 21.2404 4.95156 21.1225 5.0906 21.0393L7.34435 19.6874L22.5 28.7812L37.6556 19.6874ZM23.4637 2.45429L39.9093 12.3205C40.0484 12.4038 40.1635 12.5216 40.2434 12.6626C40.3233 12.8036 40.3653 12.9629 40.3653 13.1249C40.3653 13.287 40.3233 13.4462 40.2434 13.5872C40.1635 13.7282 40.0484 13.8461 39.9093 13.9293L22.5 24.3749L5.0906 13.9293C4.95156 13.8461 4.83647 13.7282 4.75656 13.5872C4.67665 13.4462 4.63464 13.287 4.63464 13.1249C4.63464 12.9629 4.67665 12.8036 4.75656 12.6626C4.83647 12.5216 4.95156 12.4038 5.0906 12.3205L21.5343 2.45429C21.826 2.27909 22.1598 2.18652 22.5 2.18652C22.8402 2.18652 23.174 2.27909 23.4656 2.45429H23.4637ZM22.5 6.24742L11.0381 13.1249L22.5 20.0024L33.9618 13.1249L22.5 6.24742Z" fill="#F4511E"/>
</g>
</g>
</g>
</g>
<defs>
<filter id="filter0_d_0_1" x="-35" y="-23" width="115" height="115" filterUnits="userSpaceOnUse" color-interpolation-filters="sRGB">
<feFlood flood-opacity="0" result="BackgroundImageFix"/>
<feColorMatrix in="SourceAlpha" type="matrix" values="0 0 0 0 0 0 0 0 0 0 0 0 0 0 0 0 0 0 127 0" result="hardAlpha"/>
<feOffset dy="12"/>
<feGaussianBlur stdDeviation="9.5"/>
<feComposite in2="hardAlpha" operator="out"/>
<feColorMatrix type="matrix" values="0 0 0 0 0 0 0 0 0 0 0 0 0 0 0 0 0 0 0.15 0"/>
<feBlend mode="normal" in2="BackgroundImageFix" result="effect1_dropShadow_0_1"/>
<feBlend mode="normal" in="SourceGraphic" in2="effect1_dropShadow_0_1" result="shape"/>
</filter>
<clipPath id="clip0_0_1">
<rect width="45" height="45" fill="white"/>
</clipPath>
</defs>
</svg>
