<svg width="46" height="45" viewBox="0 0 46 45" fill="none" xmlns="http://www.w3.org/2000/svg">
<rect width="46" height="45" fill="#E5E5E5"/>
<g id="Landing Page">
<rect width="1440" height="6466" transform="translate(-835 -1048)" fill="white"/>
<g id="Frame 5">
<g id="Group 1884">
<g id="Rectangle 13" filter="url(#filter0_d_0_1)">
<rect x="-16" y="-16" width="77" height="77" rx="10" fill="white"/>
</g>
<g id="community-line 1" clip-path="url(#clip0_0_1)">
<path id="Vector" d="M40.25 39.375H5.74998C5.24165 39.375 4.75414 39.1775 4.39469 38.8258C4.03525 38.4742 3.83331 37.9973 3.83331 37.5V23.4131C3.83328 23.1452 3.89195 22.8804 4.00535 22.6365C4.11875 22.3927 4.28426 22.1754 4.49073 21.9994L11.5 16.02V7.5C11.5 7.00272 11.7019 6.52581 12.0614 6.17417C12.4208 5.82254 12.9083 5.625 13.4166 5.625H40.25C40.7583 5.625 41.2458 5.82254 41.6053 6.17417C41.9647 6.52581 42.1666 7.00272 42.1666 7.5V37.5C42.1666 37.9973 41.9647 38.4742 41.6053 38.8258C41.2458 39.1775 40.7583 39.375 40.25 39.375ZM17.25 35.625H23V24.2663L15.3333 17.7263L7.66665 24.2663V35.625H13.4166V28.125H17.25V35.625ZM26.8333 35.625H38.3333V9.375H15.3333V13.3631C15.7818 13.3631 16.2322 13.5169 16.5926 13.8263L26.1759 21.9994C26.3824 22.1754 26.5479 22.3927 26.6613 22.6365C26.7747 22.8804 26.8333 23.1452 26.8333 23.4131V35.625ZM30.6666 20.625H34.5V24.375H30.6666V20.625ZM30.6666 28.125H34.5V31.875H30.6666V28.125ZM30.6666 13.125H34.5V16.875H30.6666V13.125ZM23 13.125H26.8333V16.875H23V13.125Z" fill="#F4511E"/>
</g>
</g>
</g>
</g>
<defs>
<filter id="filter0_d_0_1" x="-35" y="-23" width="115" height="115" filterUnits="userSpaceOnUse" color-interpolation-filters="sRGB">
<feFlood flood-opacity="0" result="BackgroundImageFix"/>
<feColorMatrix in="SourceAlpha" type="matrix" values="0 0 0 0 0 0 0 0 0 0 0 0 0 0 0 0 0 0 127 0" result="hardAlpha"/>
<feOffset dy="12"/>
<feGaussianBlur stdDeviation="9.5"/>
<feComposite in2="hardAlpha" operator="out"/>
<feColorMatrix type="matrix" values="0 0 0 0 0 0 0 0 0 0 0 0 0 0 0 0 0 0 0.15 0"/>
<feBlend mode="normal" in2="BackgroundImageFix" result="effect1_dropShadow_0_1"/>
<feBlend mode="normal" in="SourceGraphic" in2="effect1_dropShadow_0_1" result="shape"/>
</filter>
<clipPath id="clip0_0_1">
<rect width="46" height="45" fill="white"/>
</clipPath>
</defs>
</svg>
